<svg width="15" height="15" viewBox="0 0 15 15" fill="none" xmlns="http://www.w3.org/2000/svg">
<path d="M5.11961e-05 14.1683C-0.00182179 14.0043 0.0477396 13.844 0.141764 13.7097L3.94302 7.95623C4.03266 7.82009 4.08043 7.66064 4.08043 7.49762C4.08043 7.3346 4.03266 7.17516 3.94302 7.03901L0.141765 1.28555C0.0431164 1.13245 -0.00269889 0.951239 0.0113215 0.769634C0.025342 0.588025 0.0984284 0.416005 0.219409 0.279866C0.340389 0.143726 0.502607 0.050957 0.68127 0.0157369C0.859935 -0.0194831 1.04521 0.00478385 1.20878 0.0848285L14.5465 6.75551C14.6831 6.82548 14.7977 6.9318 14.8777 7.06273C14.9577 7.19367 15 7.34416 15 7.49762C15 7.65109 14.9577 7.80158 14.8777 7.93251C14.7977 8.06345 14.6831 8.16977 14.5465 8.23973L1.20878 14.9104C1.0443 14.9935 0.856917 15.0198 0.675931 14.9851C0.494941 14.9504 0.330548 14.8567 0.208453 14.7186C0.0744274 14.5666 0.000342154 14.371 5.11961e-05 14.1683Z" fill="white"/>
</svg>
